<?xml version="1.0" encoding="utf-8"?>
<!-- Generator: Adobe Illustrator 16.0.0, SVG Export Plug-In . SVG Version: 6.00 Build 0)  -->
<!DOCTYPE svg PUBLIC "-//W3C//DTD SVG 1.1//EN" "http://www.w3.org/Graphics/SVG/1.1/DTD/svg11.dtd">
<svg version="1.1" id="Layer_1" xmlns="http://www.w3.org/2000/svg" xmlns:xlink="http://www.w3.org/1999/xlink" x="0px" y="0px"
	 width="184.874px" height="54.622px" viewBox="0 0 184.874 54.622" enable-background="new 0 0 184.874 54.622"
	 xml:space="preserve">
<path fill="#FFFFFF" d="M25.769,45.338c-1.051,0-2.044-0.239-2.797-0.675l-11.495-6.637c-1.569-0.905-2.798-3.034-2.798-4.846
	V19.908c0-1.812,1.229-3.939,2.798-4.846l11.495-6.637c0.753-0.435,1.746-0.673,2.797-0.673c1.052,0,2.045,0.239,2.798,0.673
	l11.496,6.637c1.568,0.906,2.798,3.034,2.798,4.846v13.273c0,1.812-1.23,3.94-2.798,4.846l-11.496,6.637
	C27.814,45.099,26.821,45.338,25.769,45.338 M25.769,8.773c-0.862,0-1.695,0.196-2.286,0.537l-11.496,6.637
	c-1.239,0.716-2.286,2.529-2.286,3.961v13.273c0,1.432,1.047,3.246,2.286,3.961l11.496,6.637c0.591,0.343,1.424,0.537,2.286,0.537
	s1.696-0.194,2.286-0.537l11.498-6.637c1.239-0.715,2.286-2.529,2.286-3.961V19.908c0-1.432-1.047-3.245-2.286-3.961L28.056,9.311
	C27.465,8.97,26.631,8.773,25.769,8.773"/>
<path fill="#FFFFFF" d="M38.034,19.744c-0.238-0.409-0.763-0.549-1.171-0.312l-8.677,5.039c-1.662,0.964-2.965,3.226-2.965,5.149
	v9.924c0,0.474,0.383,0.857,0.857,0.857c0.473,0,0.856-0.384,0.856-0.857v-4.33l7.533-4.369c0.409-0.238,0.549-0.764,0.312-1.172
	c-0.238-0.409-0.763-0.549-1.172-0.313l-6.673,3.871v-3.611c0-1.301,0.987-3.014,2.113-3.667l8.676-5.037
	C38.132,20.678,38.271,20.154,38.034,19.744"/>
<path fill="#F286B6" d="M25.22,29.753l-2.213-1.277c-0.141-0.081-0.291-0.342-0.291-0.504v-2.854c0-0.163,0.15-0.423,0.292-0.505
	l1.055-0.608c0,0,0-0.001,0.002-0.002l1.413-0.816c0.143-0.081,0.442-0.081,0.583,0l2.174,1.256l1.018-0.592l-2.682-1.548
	c-0.456-0.264-1.146-0.264-1.604,0l-1.415,0.817l-1.055,0.609c-0.457,0.263-0.803,0.861-0.803,1.389v2.854
	c0,0.527,0.345,1.125,0.801,1.387l2.725,1.575V29.753z"/>
<path fill="#F6ABCB" d="M25.22,33.996l-5.325-3.073c-0.455-0.263-0.854-0.954-0.854-1.479v-5.795c0-0.612,0.288-1.152,0.445-1.244
	l0.7-0.404l4.73-2.73c0.454-0.262,1.252-0.262,1.707,0l5.277,3.046l1.018-0.591l-5.783-3.338c-0.766-0.443-1.966-0.443-2.73,0
	l-4.729,2.73l-0.701,0.404c-0.621,0.358-0.956,1.364-0.956,2.128v5.795c0,0.883,0.6,1.922,1.366,2.364l5.835,3.37V33.996z"/>
<polyline fill="#FAD3E3" points="37.711,19.432 37.711,19.432 37.71,19.431 37.711,19.432 "/>
<path fill="#FAD3E3" d="M25.22,39.544v-0.666c-2.128-1.188-9.031-5.059-9.031-5.059c-0.83-0.467-1.532-1.669-1.532-2.623v-9.305
	c0-0.956,0.7-2.167,1.527-2.645l8.059-4.653c0.828-0.479,2.226-0.479,3.053,0l8.976,5.182l0.59-0.343
	c0.253-0.147,0.55-0.149,0.797-0.032l-9.852-5.693c-1.143-0.659-2.933-0.659-4.075,0l-8.059,4.655
	c-1.142,0.659-2.037,2.209-2.037,3.529v9.305c0,1.322,0.901,2.865,2.053,3.514l9.899,5.537C25.366,40.093,25.22,39.837,25.22,39.544
	"/>
<path fill="#FFFFFF" d="M72.777,37.582c0.131-0.002,0.166-0.076,0.233-0.201c0.146-0.271,0.931-1.807,1.026-1.965
	c0.089-0.147,0.001-0.287-0.15-0.273c-0.063,0.005-0.615,0.008-0.743,0.008c-1.285,0-2.518-0.462-3.471-1.301
	c-0.922-0.813-1.451-1.885-1.451-2.941c0-2.246,0.03-9.42,0.04-11.778c0.001-0.42,0.002-0.669,0.002-0.684v-0.022
	c0-0.011-0.001-0.021-0.002-0.03l-0.002-0.034h-0.005c-0.019-0.068-0.069-0.124-0.135-0.152v-0.02h-2.273
	c-0.104,0-0.192,0.066-0.224,0.159h-0.016v0.086c0,0.014-0.002,0.267-0.003,0.693c-0.011,2.357-0.041,9.534-0.041,11.782
	C65.563,34.117,68.305,37.582,72.777,37.582"/>
<path fill="#FFFFFF" d="M131.58,34.777L131.58,34.777c-2.432,0.107-4.33-0.525-5.632-1.873c-1.229-1.272-1.854-3.114-1.854-5.476
	V15.822c0-0.158-0.125-0.293-0.305-0.313l-2.197-0.003c-0.175,0-0.313,0.133-0.324,0.316l-0.002,11.606
	c0,7.466,5.037,10.124,9.75,10.124c0.224,0,0.358,0,0.571-0.023c0.16,0,0.291-0.133,0.291-0.293v-2.168
	C131.878,34.908,131.746,34.777,131.58,34.777"/>
<path fill="#FFFFFF" d="M158.602,27.416l-1.902-1.448c-0.855-0.644-1.461-1.237-1.818-1.773c-0.355-0.536-0.503-1.085-0.438-1.646
	c0.076-0.63,0.416-1.114,1.025-1.453c0.609-0.339,1.352-0.458,2.227-0.355c1.021,0.118,1.966,0.519,2.832,1.19
	c0.013,0.015,0.031,0.026,0.049,0.036c0.004,0.002,0.007,0.005,0.009,0.005c0.022,0.012,0.052,0.021,0.082,0.021
	c0.092,0,0.166-0.067,0.183-0.155l0.004-0.014c0-0.007,0.004-0.015,0.004-0.02c0-0.004-0.002-0.005-0.002-0.008l0.266-2.249
	l-0.004-0.002c0.005-0.014,0.009-0.027,0.009-0.044c0-0.061-0.032-0.115-0.081-0.15v-0.002c-0.003-0.002-0.008-0.005-0.014-0.009
	c-0.01-0.005-0.018-0.011-0.03-0.016c-0.874-0.503-1.917-0.862-2.97-0.985c-1.635-0.192-3.016,0.113-4.143,0.909
	c-1.131,0.801-1.781,1.939-1.953,3.409c-0.114,0.983,0.053,1.881,0.506,2.698c0.449,0.817,1.269,1.691,2.453,2.619l1.89,1.473
	c1.521,1.215,2.217,2.391,2.083,3.527c-0.012,0.09-0.027,0.176-0.049,0.26c-0.129,0.581-0.459,1.047-0.992,1.396
	c-0.612,0.4-1.338,0.553-2.176,0.453c-1.375-0.158-2.543-0.754-3.592-1.885c-0.135-0.143-0.318-0.156-0.349,0.108
	c-0.035,0.306-0.282,2.463-0.282,2.463h0.002c0,0.002-0.002,0.007-0.002,0.011c0,0.065,0.037,0.123,0.09,0.158v0.003
	c1.154,0.83,2.449,1.333,3.883,1.501c1.606,0.188,2.968-0.129,4.078-0.947c0.94-0.69,1.541-1.627,1.813-2.803
	c0.002-0.004,0.002-0.004,0.002-0.008c0.003-0.014,0.008-0.029,0.012-0.044V33.64c0.045-0.202,0.082-0.408,0.107-0.621
	C161.658,30.912,160.723,29.046,158.602,27.416"/>
<path fill="#FFFFFF" d="M170.238,27.416l-1.901-1.448c-0.854-0.644-1.462-1.237-1.818-1.773c-0.356-0.536-0.503-1.085-0.437-1.646
	c0.074-0.63,0.416-1.114,1.025-1.453c0.609-0.339,1.351-0.458,2.226-0.355c1.021,0.118,1.966,0.519,2.831,1.19
	c0.014,0.015,0.031,0.026,0.05,0.036c0.003,0.002,0.006,0.005,0.009,0.005c0.023,0.012,0.051,0.021,0.082,0.021
	c0.094,0,0.167-0.067,0.184-0.155l0.002-0.014c0.002-0.007,0.006-0.015,0.006-0.02c0-0.004-0.002-0.005-0.002-0.008l0.264-2.249
	l-0.003-0.002c0.005-0.014,0.008-0.027,0.008-0.044c0-0.061-0.03-0.115-0.08-0.15v-0.002c-0.004-0.002-0.008-0.005-0.015-0.009
	c-0.008-0.005-0.018-0.011-0.028-0.016c-0.876-0.503-1.918-0.862-2.971-0.985c-1.636-0.192-3.015,0.113-4.144,0.909
	c-1.13,0.801-1.781,1.939-1.951,3.409c-0.116,0.983,0.052,1.881,0.504,2.698c0.449,0.817,1.27,1.691,2.455,2.619l1.89,1.473
	c1.521,1.215,2.216,2.391,2.082,3.527c-0.011,0.09-0.027,0.176-0.048,0.26c-0.131,0.581-0.459,1.047-0.994,1.396
	c-0.611,0.4-1.337,0.553-2.176,0.453c-1.373-0.158-2.541-0.754-3.592-1.885c-0.133-0.143-0.316-0.156-0.348,0.108
	c-0.033,0.306-0.281,2.463-0.281,2.463h0.002c0,0.002-0.004,0.007-0.004,0.011c0,0.065,0.038,0.123,0.092,0.158v0.003
	c1.153,0.83,2.449,1.333,3.881,1.501c1.607,0.188,2.969-0.129,4.08-0.947c0.939-0.69,1.541-1.627,1.812-2.803
	c0.002-0.004,0.002-0.004,0.002-0.008c0.004-0.014,0.009-0.029,0.013-0.044l-0.002-0.001c0.045-0.202,0.084-0.408,0.108-0.621
	C173.296,30.912,172.359,29.046,170.238,27.416"/>
<path fill="#FFFFFF" d="M62.943,15.648v-0.003h-0.004h-0.002h-0.006h-4.902l-0.002,0.003c-4.393,0.021-7.068,3.446-7.068,6.604
	v15.142v0.008c0,0.082,0.078,0.15,0.162,0.15h2.187l0,0c0.081-0.008,0.131-0.068,0.131-0.15c0-0.006-0.003-4.447,0-8.366h8.286
	v-0.003c0.076-0.002,0.152-0.075,0.152-0.174v-2.157c-0.001-0.085-0.069-0.155-0.155-0.155c0,0-0.005,0.002-0.009,0.002h-8.274
	c-0.001-1.886,0.01-3.506,0-4.296c-0.033-2.538,2.258-4.13,4.962-4.118h4.542v-0.003c0.074-0.004,0.133-0.06,0.142-0.13h0.003
	v-2.201C63.088,15.719,63.026,15.653,62.943,15.648"/>
<path fill="#FFFFFF" d="M146.856,33.173c-0.204,0.18-1.956,1.531-4.183,1.686c-0.279,0.02-0.557,0.029-0.826,0.029
	c-4.632,0-6.791-2.855-7.29-5.598h14.956c0.234,0,0.412-0.172,0.43-0.348c0.031-0.313,0.063-0.723,0.063-1.08
	c0-5.288-4.089-9.59-9.117-9.59s-9.118,4.302-9.118,9.59c0,4.736,3.602,9.633,9.627,9.633c0.441,0,0.893-0.026,1.344-0.082
	c1.782-0.215,3.135-0.641,4.131-1.297c0.209-0.123,0.557-0.367,0.547-0.613l0.021-2.139
	C147.443,33.037,147.037,33.015,146.856,33.173 M140.89,20.88c3.088,0,5.853,2.563,6.369,5.871H134.52
	C135.058,23.177,137.539,20.88,140.89,20.88"/>
<path fill="#FFFFFF" d="M88.317,22.055c-0.207-1.629-0.491-3.86-1.412-3.86H85.15c-0.419,0-0.857,0.345-1.203,0.948
	c-0.462,0.809-8.965,17.078-9.469,18.054c-0.053,0.102-0.056,0.202-0.01,0.277c0.031,0.05,0.095,0.109,0.231,0.109h2.353
	c0.066,0,0.154-0.031,0.201-0.105c0.003-0.004,0.004-0.006,8.298-15.838c0.001-0.002,0.004-0.004,0.006-0.007
	c0.041,0.239,2.134,15.658,2.134,15.658l0.01,0.057c0.029,0.109,0.119,0.191,0.25,0.215h2.186c0.174,0,0.269-0.055,0.242-0.258
	C90.351,37.101,88.317,22.055,88.317,22.055"/>
<path fill="#FFFFFF" d="M119.732,18.258c-0.029-0.05-0.096-0.11-0.23-0.11h-2.355c-0.066,0-0.155,0.033-0.203,0.107
	c-0.002,0.004-0.004,0.007-8.305,15.853c-0.002,0.003-0.004,0.006-0.006,0.007c-0.043-0.24-1.543-11.318-1.641-12.001
	c-0.096-0.676-0.465-1.626-0.982-1.626h-1.654c-0.465,0-0.857,0.668-1.359,1.615c0,0-1.914,3.642-6.296,12.006
	c-0.002,0.002-0.004,0.005-0.005,0.006c-0.043-0.24-0.084-0.513-0.124-0.811l-2.013-14.862l-0.012-0.058
	c-0.027-0.108-0.119-0.19-0.25-0.214h-2.188c-0.066,0-0.128,0.026-0.172,0.072c-0.02,0.021-0.036,0.044-0.047,0.07h-0.039
	l2.08,15.382c0.208,1.63,0.492,3.862,1.414,3.862h1.757c0.419,0,0.858-0.346,1.203-0.948c0.323-0.565,4.415-8.381,6.329-12.043
	l1.234,9.129c0.207,1.63,0.491,3.862,1.414,3.862h1.758c0.418,0,0.857-0.346,1.203-0.948c0.487-0.853,9.398-17.915,9.479-18.072
	C119.774,18.435,119.778,18.334,119.732,18.258"/>
</svg>
